# xmcd
#
# Track frame offsets: 
#        150
#        20525
#        42100
#        69928
#        84731
#        104869
#        123811
#        142015
#        159783
#        174483
#        199251
#
# Disc length: 2887 seconds
#
# Revision: 1
# Processed by: cddbd v1.5.2PL0 Copyright (c) Steve Scherf et al.
# Submitted via: ExactAudioCopy v1.0b4
#
DISCID=910b450b
DTITLE=Various Artist - Jazz Yule Love II
DYEAR=2006
DGENRE=Jazz
TTITLE0=Sean Jones - Have Yourself a Merry Little Christmas
TTITLE1=Gerald Wilson Orchestra - Jingle Bells
TTITLE2=Hot Club of Detroit - God Rest Ye Merry Gentlemen
TTITLE3=Oscar Castro-Neves - Air on a Six String
TTITLE4=ILona Knopfler - I'll Be Home for Christmas
TTITLE5=Oscar Castro-Neves - Dance Natal
TTITLE6=Bud Shank Quartet - Let It Snow
TTITLE7=Ilona Knopfler - Have Yourself a Merry LIttle Christmas
TTITLE8=Hot Club of Detroit - Chipmunk Song
TTITLE9=Sean Jones - O Holy Night
TTITLE10=Oscar Brown - Another Year
EXTD=YEAR: 2006
EXTT0=
EXTT1=
EXTT2=
EXTT3=
EXTT4=
EXTT5=
EXTT6=
EXTT7=
EXTT8=
EXTT9=
EXTT10=
PLAYORDER=
